<?xml version="1.0" standalone="no"?>
<!DOCTYPE svg PUBLIC "-//W3C//DTD SVG 20010904//EN"
 "http://www.w3.org/TR/2001/REC-SVG-20010904/DTD/svg10.dtd">
<svg version="1.0" xmlns="http://www.w3.org/2000/svg"
 width="700.000000pt" height="700.000000pt" viewBox="0 0 700.000000 700.000000"
 preserveAspectRatio="xMidYMid meet">
<metadata>
Created by potrace 1.14, written by Peter Selinger 2001-2017
</metadata>
<g transform="translate(0.000000,700.000000) scale(0.100000,-0.100000)"
fill="#000000" stroke="none">
<path d="M3215 6851 c-39 -10 -69 -26 -130 -72 -65 -49 -152 -91 -242 -119
-81 -24 -224 -31 -355 -16 l-78 8 0 -181 0 -181 -70 0 -70 0 0 79 c0 94 -4
108 -39 124 -32 16 -196 14 -246 -3 -48 -16 -109 -77 -125 -124 -15 -45 -19
-193 -8 -256 11 -61 49 -114 103 -145 39 -24 58 -27 147 -30 107 -3 149 8 162
40 3 9 6 52 6 95 l0 77 70 2 70 1 0 -285 0 -285 -70 0 -70 0 0 83 c0 45 -4 87
-8 93 -23 34 -49 39 -165 34 -108 -5 -118 -7 -158 -35 -68 -48 -90 -102 -93
-226 -3 -117 10 -173 49 -225 46 -60 94 -77 223 -78 108 -1 115 0 133 23 15
19 19 39 19 106 l0 83 70 0 70 0 0 -284 0 -284 -70 0 -70 0 0 85 c0 74 -3 87
-22 105 -23 21 -26 22 -135 22 -98 1 -134 -8 -180 -41 -62 -45 -84 -101 -87
-221 -3 -116 10 -175 48 -224 46 -61 95 -79 219 -81 100 -2 109 0 132 21 23
21 25 30 25 109 l0 85 70 0 70 0 0 -78 c0 -66 4 -83 25 -114 71 -104 161 -299
219 -475 l41 -122 0 -670 c-1 -638 0 -671 17 -672 10 0 32 -1 48 -1 82 0 76
-5 75 72 l-1 70 71 0 72 0 -1 -66 c-1 -36 2 -68 7 -71 4 -2 29 -5 55 -5 88 0
82 -5 80 70 l-2 67 72 3 72 3 0 -71 c0 -75 -3 -72 60 -72 86 0 80 -6 80 72 l0
70 70 0 70 0 0 -70 c0 -39 4 -70 10 -71 6 0 28 -1 50 -1 93 0 85 -6 84 72 l-1
71 71 -3 71 -3 0 -62 c0 -34 3 -64 6 -68 4 -3 26 -6 50 -6 92 -2 86 -7 85 68
l0 68 72 3 72 3 -2 -65 c-1 -36 1 -68 4 -71 3 -4 36 -7 72 -8 l66 -2 0 675 c0
585 2 682 16 725 9 28 17 55 18 60 4 13 11 31 48 130 42 108 82 192 145 302
51 88 53 95 53 167 l0 74 70 1 70 0 1 -32 c1 -17 1 -50 0 -72 -2 -50 14 -90
42 -102 35 -16 221 -8 259 10 45 21 92 73 110 122 24 63 18 257 -9 310 -47 90
-106 118 -252 118 -101 0 -105 -1 -128 -27 -19 -23 -23 -38 -22 -89 2 -105 8
-97 -71 -97 l-70 0 0 285 0 284 70 0 c79 0 71 10 72 -98 0 -64 12 -95 42 -108
11 -6 66 -9 121 -8 113 2 153 16 202 68 48 52 60 97 59 227 -1 103 -4 120 -26
160 -50 89 -135 122 -290 110 -99 -8 -103 -13 -107 -111 -1 -46 -2 -87 -3 -91
0 -5 -31 -8 -70 -8 l-70 0 0 285 0 285 70 0 70 0 1 -42 c1 -24 1 -56 0 -73 -1
-42 16 -81 42 -92 12 -5 67 -9 122 -8 115 2 163 20 213 81 40 49 50 93 48 221
-2 87 -6 116 -23 148 -47 90 -105 117 -252 118 -101 1 -105 0 -127 -26 -19
-22 -23 -38 -23 -90 1 -106 8 -97 -71 -97 l-70 0 0 181 0 182 -57 -8 c-248
-34 -449 11 -620 138 -117 87 -201 95 -320 32 l-66 -35 -31 20 c-79 49 -153
66 -221 51z m148 -174 c81 -42 144 -41 222 3 80 46 109 44 186 -14 81 -60 203
-119 299 -145 95 -25 135 -30 238 -31 l82 0 0 -936 0 -936 -34 -57 c-79 -130
-200 -409 -221 -508 l-7 -33 -354 0 c-452 0 -828 0 -902 0 l-58 0 -13 51 c-30
115 -129 345 -205 473 l-43 73 0 936 1 937 80 0 c203 1 361 52 526 169 35 25
71 49 80 53 22 9 57 -1 123 -35z m-1233 -457 c0 -86 -4 -140 -10 -141 -55 -6
-107 6 -118 28 -12 21 -15 54 -13 146 1 86 19 107 91 107 l50 0 0 -140z m2801
121 c21 -17 23 -26 23 -120 1 -122 -10 -139 -90 -143 l-50 -3 0 142 1 143 46
0 c31 0 55 -6 70 -19z m-2801 -831 l0 -140 -50 0 c-79 0 -90 17 -90 140 0 123
11 140 90 140 l50 0 0 -140z m2801 121 c21 -17 23 -26 23 -120 1 -130 -13
-147 -115 -142 l-25 1 0 140 0 140 47 0 c31 0 55 -6 70 -19z m-2801 -830 l0
-139 -27 -5 c-15 -3 -43 0 -63 7 -46 15 -56 48 -50 160 6 103 16 116 92 116
l48 0 0 -139z m2801 120 c21 -17 23 -26 23 -120 1 -88 -2 -103 -19 -120 -20
-19 -95 -34 -112 -22 -7 5 -11 238 -4 274 3 15 89 7 112 -12z m-826 -1116 l0
-70 -625 -1 c-344 0 -630 1 -635 3 -11 4 -14 112 -3 128 4 7 214 11 635 10
l628 0 0 -70z m-1129 -567 l-1 -353 -67 -3 c-38 -1 -69 1 -69 5 -4 21 -5 689
-2 696 2 4 35 7 72 7 l67 0 0 -352z m284 -2 l0 -354 -70 0 c-65 0 -70 1 -70
21 -1 27 -1 598 0 650 l0 37 70 0 70 0 0 -354z m280 194 c1 -88 1 -216 1 -285
0 -69 0 -156 -1 -195 l0 -69 -70 1 -70 1 0 354 0 353 70 0 70 0 0 -160z m285
-192 l0 -353 -70 0 -70 0 -1 353 0 352 70 0 71 0 0 -352z m284 2 l0 -350 -22
-5 c-12 -2 -44 -3 -71 -2 l-49 2 -1 340 c-1 187 0 346 2 353 3 8 27 12 72 12
l69 0 0 -350z"/>
<path d="M2837 6420 c-49 -15 -98 -61 -121 -112 -21 -48 -22 -59 -21 -451 1
-389 2 -403 22 -442 40 -76 105 -116 189 -116 29 0 57 2 62 5 5 3 8 -63 8
-147 l-1 -152 -70 0 c-59 0 -76 -4 -112 -27 -179 -117 -94 -393 120 -389 91 1
176 71 196 160 14 64 14 752 -1 815 -8 36 -22 61 -53 91 -50 50 -100 69 -166
63 -30 -3 -49 -1 -52 6 -2 6 -3 74 -2 151 1 117 3 139 15 137 47 -11 114 -1
158 23 155 85 141 312 -25 382 -36 14 -103 16 -146 3z m114 -148 c46 -38 17
-122 -41 -122 -65 0 -96 74 -50 120 25 25 61 26 91 2z m-3 -709 c31 -27 35
-66 11 -97 -46 -59 -143 -6 -118 63 19 51 69 66 107 34z m3 -711 c43 -36 18
-122 -37 -122 -36 0 -54 10 -70 41 -13 26 -13 32 1 58 23 45 67 54 106 23z"/>
<path d="M3970 6423 c-45 -18 -100 -67 -121 -109 -77 -161 53 -332 231 -303
l25 4 2 -153 2 -153 -32 7 c-71 15 -133 -3 -188 -55 -62 -60 -65 -82 -64 -522
1 -384 2 -395 23 -436 37 -70 111 -115 189 -114 108 1 198 82 208 188 8 89
-31 162 -111 209 -38 23 -53 26 -104 22 -49 -4 -60 -1 -61 11 -1 20 -1 274 0
283 1 4 13 3 29 -1 89 -24 204 42 237 135 18 51 21 770 4 838 -14 56 -61 114
-113 137 -39 18 -123 24 -156 12z m115 -157 c41 -41 12 -116 -45 -116 -48 0
-85 47 -69 89 21 54 74 66 114 27z m-8 -701 c70 -49 0 -156 -77 -115 -25 13
-41 61 -28 86 24 44 66 56 105 29z m1 -712 c49 -42 24 -123 -38 -123 -66 0
-95 69 -50 118 25 27 60 28 88 5z"/>
<path d="M397 2384 c-1 -2 -17 -6 -35 -9 -51 -9 -131 -41 -174 -71 -74 -52
-123 -131 -160 -261 -23 -78 -23 -79 -23 -813 0 -734 0 -735 23 -813 54 -188
141 -281 307 -328 33 -9 98 -14 190 -13 114 0 153 5 212 23 70 21 148 69 186
115 38 45 78 137 93 211 2 11 6 29 8 41 8 38 17 167 19 274 l2 105 -70 0 -69
0 -2 -115 c-6 -328 -56 -437 -227 -497 -63 -22 -249 -25 -314 -5 -82 25 -137
83 -182 192 -20 51 -29 127 -31 274 -5 364 -4 1214 1 1246 24 139 69 212 166
273 107 67 306 68 416 4 118 -69 162 -184 171 -437 2 -63 5 -118 5 -122 1 -4
31 -7 68 -5 l68 2 -3 100 c-11 468 -156 642 -529 634 -62 -2 -114 -4 -116 -5z"/>
<path d="M2987 2382 c-16 -3 -17 -87 -17 -1161 l0 -1158 285 0 285 0 0 399 0
398 190 1 c105 1 193 2 198 3 4 1 29 5 55 10 75 12 78 12 150 40 190 72 316
217 383 443 21 72 27 114 30 233 6 232 -32 374 -139 520 -108 148 -279 237
-512 266 -53 7 -686 7 -692 0 -8 -7 -10 -1044 -3 -1056 3 -4 147 -7 320 -5
345 3 386 8 452 63 46 37 60 58 85 124 18 47 22 73 19 140 -4 97 -27 157 -77
205 -65 62 -90 67 -344 71 l-230 4 0 -196 0 -197 60 3 60 3 0 132 c0 82 4 133
10 134 6 0 74 1 152 1 118 0 149 -3 180 -19 56 -27 78 -73 78 -158 -1 -108
-39 -159 -135 -180 -37 -9 -486 -15 -507 -7 -10 3 -13 95 -13 414 l0 410 313
-5 c276 -4 321 -7 388 -25 279 -76 423 -279 422 -597 -1 -96 -5 -135 -29 -254
-10 -50 -72 -168 -113 -213 -69 -77 -195 -146 -317 -173 -16 -4 -146 -9 -288
-11 -143 -2 -261 -6 -264 -9 -3 -3 -6 -181 -6 -397 l-1 -393 -150 -1 c-82 0
-156 2 -162 4 -10 3 -13 232 -13 1098 0 868 -3 1094 -12 1095 -59 3 -77 4 -91
1z"/>
<path d="M5767 2384 c-1 -1 -26 -5 -55 -8 -373 -41 -728 -291 -901 -633 -164
-327 -167 -699 -7 -1023 192 -387 596 -648 1011 -653 142 -2 215 6 315 34 202
56 372 153 517 296 179 178 276 366 341 659 12 53 12 230 1 321 -44 351 -281
695 -594 864 -177 96 -342 139 -547 143 -43 1 -80 1 -81 0z m205 -124 c230
-31 438 -131 599 -290 87 -86 120 -128 173 -220 229 -393 172 -905 -136 -1235
-90 -96 -181 -165 -293 -220 -177 -87 -280 -110 -490 -109 -396 1 -753 235
-924 606 -66 142 -86 239 -86 418 0 173 3 197 40 323 79 274 279 508 539 631
111 53 168 72 269 89 107 18 211 20 309 7z"/>
<path d="M5778 2155 c-2 -1 -30 -5 -63 -8 -152 -15 -333 -88 -455 -185 -235
-186 -366 -473 -354 -777 2 -49 6 -101 9 -115 3 -14 7 -37 10 -52 9 -50 57
-172 92 -238 97 -177 279 -342 460 -415 143 -58 190 -67 343 -71 172 -3 270
15 413 80 184 82 353 243 441 423 41 83 83 218 91 295 6 62 7 256 1 266 -2 4
-7 30 -10 57 -10 69 -57 208 -97 280 -128 235 -344 390 -619 445 -51 10 -254
22 -262 15z m234 -131 c273 -58 498 -253 596 -516 63 -169 63 -385 1 -558 -75
-207 -234 -381 -432 -474 -201 -94 -468 -93 -674 4 -233 109 -419 351 -463
605 -12 68 -10 246 4 310 65 304 309 552 614 624 94 22 260 24 354 5z"/>
<path d="M5661 1919 c-136 -35 -235 -91 -328 -186 -190 -196 -256 -476 -173
-725 105 -312 383 -513 699 -502 53 1 105 5 116 7 65 16 86 22 139 44 312 129
487 465 421 808 -53 277 -262 497 -532 560 -82 19 -256 16 -342 -6z m324 -114
c368 -96 553 -506 384 -850 -69 -141 -223 -270 -359 -301 -19 -4 -42 -9 -50
-11 -8 -2 -51 -6 -95 -8 -328 -16 -603 236 -619 567 -12 270 184 532 454 602
74 20 212 20 285 1z"/>
<path d="M1786 2228 c-53 -195 -54 -199 -230 -838 -208 -758 -310 -1130 -334
-1217 -12 -40 -18 -74 -14 -76 4 -1 36 -2 71 -2 45 1 67 6 73 16 4 8 40 142
78 299 39 157 75 301 81 322 l9 36 367 -1 367 -2 13 -50 c7 -27 15 -61 18 -75
17 -82 133 -531 138 -536 5 -5 103 -8 143 -5 6 1 -26 134 -78 324 -49 177 -97
354 -107 392 -10 39 -108 394 -216 790 -109 396 -200 730 -203 743 -4 20 -10
22 -71 22 l-67 0 -38 -142z m154 -183 c22 -93 47 -197 56 -230 8 -33 16 -70
19 -82 7 -34 9 -42 64 -263 95 -386 131 -537 131 -549 0 -9 -84 -11 -325 -10
-217 2 -325 6 -325 13 0 5 43 177 96 381 53 203 98 379 100 389 2 10 8 33 13
50 13 41 121 462 121 472 0 24 13 -20 50 -171z"/>
<path d="M3429 2146 c-1 0 -2 -27 -3 -58 l-2 -58 95 0 c316 -1 405 -6 464 -29
143 -56 221 -199 220 -401 -2 -202 -93 -328 -273 -376 -55 -14 -116 -17 -395
-18 -249 -1 -331 -4 -335 -13 -4 -10 -5 -868 -1 -920 1 -9 19 -13 56 -13 l55
0 0 414 0 415 268 1 c279 0 299 2 397 27 128 32 244 122 294 228 76 163 70
412 -14 575 -26 51 -102 127 -159 159 -101 57 -138 63 -413 66 -139 2 -253 2
-254 1z"/>
</g>
</svg>
