<svg xmlns="http://www.w3.org/2000/svg" viewBox="0 0 87 30">
  <path fill="currentColor" d="M12.97 21.492q-.037 1.88-.356 3.29c-.319 1.41-.577 1.716-1.09 2.33s-1.19 1.072-2.03 1.373-1.9.451-3.178.451q-3.308 0-4.812-1.842C0 25.252 0 23.998 0 21.492V7.581q0-3.76 1.522-5.602C3.044.137 4.272.136 6.73.136q3.307 0 4.737 1.843c1.43 1.843 1.453 3.096 1.504 5.602l.038 1.73h-1.73l-.038-2.181q0-.94-.188-1.9c-.188-.96-.351-1.221-.676-1.747s-.784-.954-1.373-1.279-1.372-.489-2.35-.489q-1.429 0-2.387.452c-.958.452-1.147.714-1.523 1.24s-.633 1.147-.77 1.861-.207 1.486-.207 2.313l.075 14.099q0 2.595.959 4.06c.959 1.465 1.81 1.467 3.515 1.467q1.467 0 2.425-.395c.958-.395 1.141-.633 1.504-1.109s.62-1.053.77-1.73.226-1.415.226-2.218l.038-2.444h1.73zm17.183 7.106-2.068-8.31h-9.174l-2.067 8.31h-1.88L22.746.4h1.617l7.745 28.198zM23.611 2.167l-4.248 16.317h8.234z"/>
  <path d="M37 .267h1.518v27.24h4.062V17.62h5.046c1.846 0 3.364-.41 4.636-1.271 1.97-1.19 2.995-3.61 2.995-6.77 0-5.087-2.872-7.794-8.164-7.794h-5.867V12h5.251c2.134 0 2.954-.656 2.954-2.42 0-1.436-.697-2.134-2.133-2.134H44.18v3.323l-1.518.041v-4.8h4.636c2.256 0 3.528 1.313 3.528 3.57 0 2.625-1.436 3.938-4.349 3.938h-6.646V.267h7.262c5.948 0 9.6 3.446 9.6 9.312 0 6.072-3.323 9.56-9.067 9.56h-3.528v9.887H37zm2.831 14.605h6.892c3.816 0 5.662-1.641 5.662-5.087 0-3.241-1.764-5.129-4.595-5.129h-5.128V3.18h5.128c1.149 0 2.215.247 3.16.78 1.927 1.026 2.912 3.077 2.912 5.826 0 4.266-2.38 6.523-7.139 6.523h-5.497v10.256h-1.395zm32.985 14.154q-3.754 0-7.139-1.97c-4.513-2.584-7.302-7.343-7.302-12.43 0-2.544.656-4.923 1.969-7.18 2.585-4.43 7.426-7.22 12.472-7.22 2.502 0 4.923.656 7.18 1.928 4.512 2.625 7.22 7.508 7.22 12.472 0 2.502-.657 4.84-1.928 7.097-2.626 4.513-7.385 7.303-12.472 7.303m0-27.364c-2.339 0-4.513.574-6.482 1.723-3.98 2.297-6.441 6.523-6.441 11.24 0 2.34.574 4.513 1.723 6.483a12.82 12.82 0 0 0 11.2 6.44q3.507 0 6.523-1.722a12.82 12.82 0 0 0 6.44-11.2 12.93 12.93 0 0 0-1.722-6.523c-2.298-3.98-6.646-6.441-11.241-6.441m0 24.574c-2.052 0-3.98-.533-5.826-1.56-3.651-2.091-5.908-5.907-5.908-10.05 0-2.093.534-4.02 1.56-5.826 2.092-3.61 5.784-5.744 10.174-5.744 2.215 0 4.225.493 5.99 1.477 3.528 1.97 5.579 5.662 5.579 10.093q0 3.138-1.477 5.784c-2.01 3.57-5.949 5.826-10.092 5.826m0-21.744c-1.846 0-3.528.452-5.087 1.354a9.97 9.97 0 0 0-5.088 8.78c0 1.805.452 3.487 1.395 5.046 1.805 3.159 5.005 5.128 8.78 5.128 1.846 0 3.528-.451 5.087-1.395 3.077-1.805 5.046-5.17 5.046-8.78 0-1.846-.451-3.569-1.354-5.128-1.805-3.118-5.21-5.005-8.78-5.005zm0 19.077a8.9 8.9 0 0 1-4.472-1.19c-2.749-1.6-4.513-4.635-4.513-7.753 0-1.6.41-3.118 1.23-4.513 1.6-2.79 4.432-4.39 7.755-4.39 1.6 0 3.077.41 4.43 1.19 2.75 1.6 4.35 4.39 4.35 7.713 0 1.64-.37 3.118-1.108 4.471a8.8 8.8 0 0 1-7.672 4.472m0-16.369a7.3 7.3 0 0 0-3.693.985c-2.297 1.353-3.774 3.774-3.774 6.44 0 1.313.328 2.544.985 3.652 1.313 2.297 3.692 3.692 6.482 3.692 1.354 0 2.625-.328 3.733-.984 2.256-1.313 3.61-3.734 3.61-6.36a7.36 7.36 0 0 0-.984-3.733 7.31 7.31 0 0 0-6.36-3.692z"/>
</svg>