<?xml version="1.0" encoding="UTF-8"?>
<svg xmlns="http://www.w3.org/2000/svg" viewBox="0 0 32 32">
  <path fill="currentColor" d="M16 29.026q-3.754 0-7.139-1.97c-4.513-2.584-7.302-7.343-7.302-12.43 0-2.544.656-4.923 1.969-7.18C6.113 2.977 10.954.187 16 .187c2.502 0 4.923.656 7.18 1.928 4.512 2.625 7.22 7.508 7.22 12.472 0 2.502-.657 4.84-1.928 7.097-2.626 4.513-7.385 7.303-12.472 7.303m0-27.364c-2.339 0-4.513.574-6.482 1.723-3.98 2.297-6.441 6.523-6.441 11.24 0 2.34.574 4.513 1.723 6.483a12.82 12.82 0 0 0 11.2 6.44q3.507 0 6.523-1.722a12.82 12.82 0 0 0 6.44-11.2 12.93 12.93 0 0 0-1.722-6.523c-2.298-3.98-6.646-6.441-11.241-6.441m0 24.574c-2.052 0-3.98-.533-5.826-1.56-3.651-2.091-5.908-5.907-5.908-10.05 0-2.093.534-4.02 1.56-5.826 2.092-3.61 5.784-5.744 10.174-5.744 2.215 0 4.225.493 5.99 1.477 3.528 1.97 5.579 5.662 5.579 10.093q0 3.138-1.477 5.784c-2.01 3.57-5.949 5.826-10.092 5.826m0-21.744c-1.846 0-3.528.452-5.087 1.354a9.97 9.97 0 0 0-5.088 8.78c0 1.805.452 3.487 1.395 5.046 1.805 3.159 5.005 5.128 8.78 5.128 1.846 0 3.528-.451 5.087-1.395 3.077-1.805 5.046-5.17 5.046-8.78 0-1.846-.451-3.569-1.354-5.128-1.805-3.118-5.21-5.005-8.78-5.005zm0 19.077a8.9 8.9 0 0 1-4.472-1.19c-2.749-1.6-4.513-4.635-4.513-7.753 0-1.6.41-3.118 1.23-4.513 1.6-2.79 4.432-4.39 7.755-4.39 1.6 0 3.077.41 4.43 1.19 2.75 1.6 4.35 4.39 4.35 7.713 0 1.64-.37 3.118-1.108 4.471a8.8 8.8 0 0 1-7.672 4.472m0-16.369a7.3 7.3 0 0 0-3.693.985c-2.297 1.353-3.774 3.774-3.774 6.44 0 1.313.328 2.544.985 3.652 1.313 2.297 3.692 3.692 6.482 3.692 1.354 0 2.625-.328 3.733-.984 2.256-1.313 3.61-3.734 3.61-6.36a7.36 7.36 0 0 0-.984-3.733 7.31 7.31 0 0 0-6.36-3.692z"/>
</svg>
